<?xml version="1.0" encoding="utf-8"?>
<!-- Generator: Adobe Illustrator 25.2.0, SVG Export Plug-In . SVG Version: 6.00 Build 0)  -->
<svg version="1.1" id="Layer_1" xmlns="http://www.w3.org/2000/svg" xmlns:xlink="http://www.w3.org/1999/xlink" x="0px" y="0px"
	 viewBox="0 0 55 55" style="enable-background:new 0 0 55 55;" xml:space="preserve">
<style type="text/css">
	.st0{fill-rule:evenodd;clip-rule:evenodd;fill:#FFFFFF;}
</style>
<g>
	<path class="st0" d="M17.12,37.74c0.52-0.31,6.81-0.13,7.42-0.13c2.09,0,5.56-0.21,7.49,0.04l0.09,2.55
		c-0.05,0.23-0.1,0.24-0.15,0.34c-0.47,0.89-1.93,0.6-3.18,0.6c-2.35,0-10.6,0.29-11.56-0.32C17.05,39.97,17.1,38.71,17.12,37.74
		L17.12,37.74z M27.79,30.21c-0.43-0.02-0.62,0-0.73-0.34c-0.11-0.34-0.08-0.77,0.23-0.87c0.61-0.14,0.94-0.03,1.24-0.61
		c0.73-1.46,0.42-1.44-0.23-2.31c0.22-0.29,0.4-0.42,0.61-0.7c0.85,0.32,0.75,0.87,1.7,0.46c0.95-0.42,1.24-0.12,1.19-1.3
		c-0.05-0.81,0-0.28,0.15-0.41l0.99,0c0.18,0.08,0.18-0.31,0.14,0.28c0.02,0.74,0.03,0.9,0.62,1.16c1.57,0.68,1.16,0.4,2.2-0.27
		l0.7,0.81c-0.11,0.11-0.5,0.64-0.55,0.78c-0.19,0.48-0.03,0.47,0.18,0.94c0.46,1,0.32,0.96,1.6,1.04c0.05,1.22,0.24,1.06-1.23,1.3
		c-0.62,1.55-0.92,1.45,0.04,2.61c-0.18,0.39-0.42,0.58-0.7,0.78c-0.83-0.54-0.73-0.85-1.77-0.36c-1.43,0.66-0.68,0.24-1.11,1.63
		c-1.67,0.05-0.78-0.14-1.26-1.06c-0.2-0.38-0.46-0.35-0.96-0.56c-0.43-0.18-0.99-0.44-1.7,0.46l-0.72-0.76
		c0.52-0.97,0.78-0.74,0.49-1.45C28.53,30.61,28.64,30.16,27.79,30.21L27.79,30.21z M31.09,35.18c0.52,0.94,0.83,0.18,1.04,0.77
		c0.06,0.16,0.02,0.61-0.16,0.87c-1.74-0.14-14.73-0.19-15.69,0.07c-0.11,0.67-0.12,2.64-0.06,3.43c0.07,1,0.8,1.66,1.85,1.7
		c1.55,0.07,13.18,0.14,13.86-0.18c1.43-0.68,1-3.64,0.99-6.05c0.37-0.03,0.64-0.07,0.92-0.17l0.25-1.35
		c1.14-0.66,0.9,0.11,1.96,0.38c0.54-0.23,1.45-1.17,1.67-1.71c-0.18-0.72-0.42-0.6-0.75-1.23c0.38-1,0.41-0.75,1.54-0.96
		c0.26-0.65,0.16-1.68,0.15-2.49l-0.56-0.27l-0.83-0.03c-0.75-1.31,0.08-0.83,0.36-2.02c-0.21-0.54-1.18-1.51-1.74-1.74l-1.21,0.79
		c-0.29-0.12-0.55-0.23-0.75-0.36c-0.1-0.62-0.11-0.98-0.42-1.36c0,0-2.06-0.4-2.41,0.31c-0.01,0.03-0.03,0.06-0.04,0.1l-0.09,0.62
		c-0.27,1.58-1.74,0.03-2.05,0.05c-0.57,0.21-1.44,1.11-1.69,1.6c0.2,1.18,0.92,0.43,0.5,2.07c-0.25,0.04-0.56,0.05-0.85,0.13
		c-1.34,0.35-0.53,2.52-0.52,2.53c0.55,0.64,1.04-0.04,1.48,0.62c0.82,1.24-1.56,0.94,0.13,2.6c1.53,1.5,0.92,0.72,2.33,0.11
		C31.09,34.31,31.07,34.24,31.09,35.18z"/>
	<path class="st0" d="M31.97,14.49c0.02,0.04,0.05,0.08,0.06,0.11c0.01,0.03,0.04,0.07,0.05,0.11c0.1,0.33,0.1,1.21-0.04,1.73
		c-1.88,0.26-5.45,0.05-7.51,0.05c-0.59,0-6.92,0.16-7.43-0.13l0.12-2.15c0.96-0.61,9.21-0.32,11.56-0.32
		C30.05,13.89,31.43,13.58,31.97,14.49L31.97,14.49z M17.12,17.3l14.91,0.01c0.05,2.49-0.35,2.77,0.76,2.73
		c0.32-0.81,0.14-2.79,0.14-3.84c0.01-4.12-0.7-3.19-9.22-3.19c-1.37,0-2.74,0-4.12,0c-4.22,0-3.37,0.48-3.37,8.95l0,12.21
		c-0.01,0.53-0.13,1.53,0.57,1.3c0.5-0.16,0.33-1.14,0.33-1.72C17.08,28.3,17.02,22.74,17.12,17.3z"/>
	<path class="st0" d="M32.04,30.86c-1.56-0.32-1.35-2.88,0.45-2.87c1.71,0.02,2.05,2.48,0.43,2.89c0.01-0.68,0.08-1.56-0.12-2.1
		l-0.64,0.01C31.96,29.31,32.03,30.18,32.04,30.86L32.04,30.86z M31.66,27.26c-3.01,1.06-1.3,5.62,1.68,4.46
		C36.15,30.62,34.75,26.17,31.66,27.26z"/>
	<path class="st0" d="M26.09,18.48c-0.93-0.21-0.91,0.55-1.28,1.43c-0.27,0.66-0.52,1.3-0.78,1.96c-0.24,0.6-1.63,3.58-1.27,3.95
		c0.66,0.69,1.02-0.87,1.22-1.39C24.5,23.1,26.24,19.27,26.09,18.48z"/>
	<path class="st0" d="M28.92,22.09c-0.33,0.56-2.29,1.92-1.43,2.4c0.45,0.25,2.42-2.06,2.55-2.26c-0.16-0.68-2-2.29-2.13-2.32
		C26.23,19.42,28.16,21.53,28.92,22.09z"/>
	<path class="st0" d="M21.64,24.45c0.2-0.19,0.06,0.12,0.18-0.23c0.09-0.28,0.08-0.1-0.01-0.34l-1.59-1.7
		c0.33-0.24,0.59-0.57,0.91-0.89c0.37-0.37,0.86-0.58,0.64-1.36c-0.76-0.15-1.07,0.49-1.49,0.93c-1.55,1.6-1.44,1.27,0.01,2.74
		C20.64,23.97,21.1,24.69,21.64,24.45z"/>
	<path class="st0" d="M26.97,39.89l0.04-0.64c-1.35-0.25-2.75-0.12-4.13-0.13c-0.5,0-1.12,0.1-0.74,0.68
		C22.43,40.22,26.52,40.07,26.97,39.89z"/>
	<path class="st0" d="M31.96,40.53c0.06-0.1,0.1-0.11,0.15-0.34l-0.09-2.55c-1.93-0.25-5.4-0.04-7.49-0.04
		c-0.6,0-6.9-0.18-7.42,0.13l14.89,0L31.96,40.53z"/>
	<path class="st0" d="M17.1,16.35c0.51,0.29,6.84,0.13,7.43,0.13c2.06,0,5.63,0.21,7.51-0.05c0.14-0.52,0.14-1.4,0.04-1.73
		c-0.01-0.04-0.04-0.08-0.05-0.11c-0.01-0.03-0.04-0.07-0.06-0.11L32,16.35L17.1,16.35z"/>
	<path class="st0" d="M24.15,15.37c0.51,0.37,2.56,0.33,3.14,0.07l-0.04-0.57c-0.6-0.27-1.52-0.17-2.31-0.17
		C24.24,14.69,24.13,14.69,24.15,15.37z"/>
	<path class="st0" d="M38.52,30.74c0.44-0.45,0.3-0.86,0.3-1.65c0-0.87,0.05-0.95-0.71-1.1l0.56,0.27
		C38.68,29.06,38.78,30.09,38.52,30.74z"/>
	<path class="st0" d="M31.98,36.81c0.18-0.25,0.21-0.71,0.16-0.87c-0.21-0.59-0.53,0.17-1.04-0.77l0.11,0.53l0.8,0.24L31.98,36.81z"
		/>
	<path class="st0" d="M27.79,30.21l-0.63-0.25l0.12-0.95c-0.31,0.1-0.34,0.53-0.23,0.87C27.16,30.22,27.35,30.2,27.79,30.21z"/>
	<path class="st0" d="M31.78,24.54l0.15-0.41l0.99,0l0.14,0.28c0.04-0.59,0.04-0.2-0.14-0.28l-0.99,0
		C31.79,24.26,31.73,23.73,31.78,24.54z"/>
</g>
</svg>
