<?xml version="1.0" encoding="utf-8"?>
<!-- Generator: Adobe Illustrator 25.2.0, SVG Export Plug-In . SVG Version: 6.00 Build 0)  -->
<svg version="1.1" xmlns="http://www.w3.org/2000/svg" xmlns:xlink="http://www.w3.org/1999/xlink" x="0px" y="0px"
	 viewBox="0 0 55 55" style="enable-background:new 0 0 55 55;" xml:space="preserve">
<style type="text/css">
	.st0{fill-rule:evenodd;clip-rule:evenodd;fill:#FFFFFF;}
</style>
<g id="Layer_1">
</g>
<g id="Layer_1_1_">
	<g>
		<path class="st0" d="M12.58,38.17c1.67-0.27,5.34-0.06,7.22-0.06c1.68,0,1.93-0.29,2.86,0.74c0.79,0.88,1.57,0.67,2.97,0.67
			c1.57,0,1.85,0.13,2.68-0.83c0.75-0.86,1.82-0.58,3.16-0.58c2.3,0,5.16-0.15,7.38,0.03c0.03,3.83-1.15,3.65-4.68,3.65H17.38
			C13.85,41.79,12.55,42.04,12.58,38.17L12.58,38.17z M35.61,33.9l0.37-2.91l2.1-0.01l0.36,2.9c-0.48-0.39-0.76-1.22-1.42-1.2
			C36.33,32.7,36.2,33.53,35.61,33.9L35.61,33.9z M41.37,25.16c0.45,0.22,0.28,0.06,0.6,0.5c0.08,0.1,0.28,0.48,0.33,0.65
			c0.16,0.53,0.09,1.28,0.09,1.88c0,1.3,0.04,2.65-0.02,3.94c-0.7-0.39-2.31-1.77-2.34-2.96C40.03,28.89,41.2,26.25,41.37,25.16
			L41.37,25.16z M31.67,32.12c0.01-1.31,0-2.62,0-3.93c0-1.59-0.11-2.24,0.93-2.98c0.31,0.58,0.41,1.36,0.66,2.03
			c0.19,0.51,0.76,1.51,0.75,1.94C34.01,30.34,32.37,31.91,31.67,32.12L31.67,32.12z M38.15,29.98c0.99-1.2,1.92-3.29,2.3-5.18
			c0.56-2.8,0.03-4.17-0.53-6.63c-3.7,1.01-2.56,0.79-5.79,0.01c-0.64,2.89-1.18,4.32-0.32,7.51c0.23,0.85,1.45,4.03,2.12,4.26
			C36.18,30.04,37.78,29.99,38.15,29.98L38.15,29.98z M34.61,17.26c0.27-1.05,1.85-3.28,2.4-3.77c0.76,0.46,2.21,3.02,2.44,3.79
			C37.45,17.88,36.63,18.13,34.61,17.26L34.61,17.26z M32.45,21.22c-3.3,0.14-15.04-0.17-16.75,0.04c-1.58,0.19-2.44,1.47-2.44,3.23
			c0,3.99,0.11,8.71-0.03,12.61c-1.79,0.06-1.65,0.63-1.65,2.18c0,2.71,1.92,3.5,4.23,3.5h20.06c2.8,0,3.98-1.32,3.97-4.07
			c0-1.14-0.22-1.6-1.41-1.6h-8.39c-1.64,0-1.63,0.03-2.49,0.96c-0.62,0.68-1.89,0.44-3.06,0.44c-1.28-0.01-1.07-0.49-1.76-1.03
			c-0.67-0.52-1.72-0.38-2.65-0.38c-1.92,0-3.88,0.04-5.8-0.01c-0.15-1.85-0.04-10-0.03-12.47c0-1.99,0.77-2.41,2.7-2.4
			c2.06,0.01,14.55-0.12,15.43,0.06c0.12,2.98,0.04,1.06-1.28,3.11c-0.68,1.06-0.43,4.32-0.42,5.77c0,0.71-0.1,1.72,0.16,2.19
			c0.59,0.56,2.75-1.12,3.58-2.5l0.48-0.58c0.3,1.15-0.63,4.5-0.45,5.28c0.33,1.51,1.75-0.99,2.57-1.6c0.53,0.29,2.47,3.32,2.64,1.5
			c0.06-0.66-0.77-4.11-0.5-5.17c0.49,0.31,0.95,1.48,1.59,1.99c3.19,2.53,2.64,0.81,2.65-2.81c0-1.79,0.22-3.1-0.61-4.34
			c-0.44-0.66-0.57-0.55-0.93-0.95c-0.44-0.5-0.18-0.43-0.18-1.83c0-2.04-0.54-3.98-1.3-5.63c-0.38-0.84-0.79-1.6-1.28-2.28
			c-0.33-0.46-1.26-1.84-1.53-2.04c-0.78-0.59-1.32,0.2-2.02,1.22c-0.48,0.71-0.92,1.32-1.4,2.16
			C33.32,17.24,32.66,19.28,32.45,21.22z"/>
		<path class="st0" d="M26.52,31.08l1.32,0.05l-0.01,3.59l-1.36,0.01L26.52,31.08L26.52,31.08z M21.96,28.73l1.36,0.02l-0.01,5.98
			l-1.35-0.03L21.96,28.73L21.96,28.73z M17.5,26.94l1.33,0l-0.01,7.78l-1.36,0.02L17.5,26.94L17.5,26.94z M16.59,25.96
			c-0.35,1.05-0.09,7.06-0.13,8.72l-1.11,0.14l-0.02,0.8c1.82,0.3,11.4,0.1,13.99,0.1c0.48,0,1.06-0.07,0.89-0.61
			c-0.16-0.51-0.74-0.38-1.37-0.37c-0.12-4.67,1.04-4.99-3.25-4.59c-0.26,0.9-0.08,3.38-0.14,4.56l-1.12,0.02l-0.03-6.9
			c-0.77-0.21-2.46-0.26-3.16,0.01c-0.46,0.7-0.15,5.56-0.19,6.89l-1.12-0.01c-0.06-1.8,0.21-7.53-0.13-8.69L16.59,25.96z"/>
		<path class="st0" d="M36.78,21.77c1.43-0.64,2.08,1.58,0.87,2.09C36.25,24.46,35.17,22.49,36.78,21.77L36.78,21.77z M35.06,23.36
			c0.61,2.68,4.81,1.78,4.16-1.07C38.62,19.61,34.41,20.53,35.06,23.36z"/>
	</g>
</g>
</svg>
