<?xml version="1.0" encoding="utf-8"?>
<!-- Generator: Adobe Illustrator 25.2.0, SVG Export Plug-In . SVG Version: 6.00 Build 0)  -->
<svg version="1.1" id="Layer_1" xmlns="http://www.w3.org/2000/svg" xmlns:xlink="http://www.w3.org/1999/xlink" x="0px" y="0px"
	 viewBox="0 0 55 55" style="enable-background:new 0 0 55 55;" xml:space="preserve">
<style type="text/css">
	.st0{fill-rule:evenodd;clip-rule:evenodd;fill:#FFFFFF;}
</style>
<g>
	<path class="st0" d="M28.89,38.39c0.26,0.66,0.12,0.9-0.63,0.9c-1.58,0-2.69,0.24-2.17-0.91C26.73,38.16,28.15,38.13,28.89,38.39
		L28.89,38.39z M47.14,38.54c-0.12-0.15-0.25-0.34-0.38-0.53l-4.53-0.05c0.72-0.21,0.4-3.05,0.4-4.08c0-2.46,0.16-12.52-0.14-13.53
		c-0.96-0.3-3.55-0.12-4.8-0.14l0.17,0.69c0.02,0.03,0.05,0.08,0.07,0.09l0.24,0.22c0.02-0.05,3.27-0.05,3.36,0.23l0.08,0.91
		c0,0.33,0,0.65,0,0.97c0,1.48,0.15,13.19-0.1,13.79c-0.03,0.01-0.07,0.03-0.1,0.04l-13.97,0.06c-0.57,0-13.49,0.2-14.02-0.14V21.34
		l3.57-0.01l0.25-1.1c-0.94,0-4.22-0.26-4.75,0.2c-0.4,0.3-0.31,0.3-0.32,0.94l0.01,12.5c0,1.51-0.25,3.48,0.4,4.13l-4.33,0.04
		c-0.12,0.15-0.25,0.35-0.38,0.54v0.65l0.12,0.2c0.3,0.37,0.2,0.22,0.57,0.41h37.97c0.2-0.2,0.41-0.42,0.63-0.66V38.54z"/>
	<path class="st0" d="M26.02,15.35l-0.1,1.05l-2.09,0.12c-0.74,0-1.48,0-2.22,0c-0.61-0.06-0.22,0-0.38-0.2
		c-1.16-1.74-2.86-0.68-2.83,0.62c0.02,0.71,0.62,1.33,1.28,1.41c1.06,0.13,1.25-0.45,1.65-0.95l2.44-0.01
		c-1.85,1.18-3.38,3.04-3.97,5.98l-0.98,0.06c-0.08,0.53-0.28,2.34,0.17,2.69c0.54,0.29,1.94,0.17,2.52,0.03
		c0.1-0.4,0.29-2.29-0.08-2.64c-0.14-0.13-0.16-0.08-0.27-0.14l-0.41-0.19c0.65-2.87,2.54-4.95,5.17-5.65l0.1,1.08
		c0.98,0.1,2.51,0.22,3.3-0.07l0.11-1c2.64,0.6,4.55,2.9,5.21,5.65l-0.37,0.2c-0.12,0.05-0.29,0.08-0.4,0.12
		c-0.15,0.65-0.14,1.98-0.03,2.29c0.29,0.85,2.34,0.46,2.56,0.26c0.43-0.4,0.25-1.8,0.2-2.43c-0.29-0.13-0.35-0.11-0.69-0.18
		c-0.5-0.11-0.46,0.13-0.45-0.35c-0.03-1.58-1.5-3.79-2.45-4.63c-0.44-0.39-0.94-0.7-1.38-1.07l2.07-0.01
		c0.49,0.49,0.68,1.09,1.66,0.99c1.61-0.15,1.76-2.63,0.08-2.89c-1.03-0.16-1.28,0.49-1.74,0.95l-4.28,0.01
		c0.01-0.67,0.06-0.88-0.22-1.3h-2.98L26.02,15.35z"/>
	<path class="st0" d="M25.02,31.7l5.18,0.07l0.61-1.3c1.46-3.71,0.93-1.13-1.21-6.67l-1.06-2.87l-0.68,0.04
		c0.04,1.04-0.24,5.78,0.21,6.46c0.89,1.34-0.78,1.51-1.02,0.71c-0.29-0.98,0.41-0.08,0.4-1.74c-0.01-1.26,0.1-4.79-0.07-5.5
		c-0.86-0.09-0.63,0.03-0.9,0.93c-0.44,1.44-1.66,4.18-2.41,5.5C23.18,28.89,24.23,28.82,25.02,31.7z"/>
	<path class="st0" d="M13.41,37.08c0.53,0.33,13.46,0.14,14.02,0.14l13.97-0.06c0.02-0.01,0.07-0.02,0.1-0.04
		c0.25-0.6,0.1-12.31,0.1-13.79c0-0.32,0-0.65,0-0.97l-0.08-0.91c-0.08-0.28-3.33-0.27-3.36-0.23L37.93,21
		c-0.02-0.02-0.05-0.06-0.07-0.09c0.1,0.36,0.06,0.23,0.09,0.51l3.51-0.05l0.04,15.72L13.41,37.08z"/>
	<polygon class="st0" points="25.08,33.33 30.18,33.31 30.18,32.34 25.09,32.34 	"/>
	<path class="st0" d="M21.21,16.33c0.17,0.19-0.23,0.14,0.38,0.2c0.74,0,1.48,0,2.22,0l2.09-0.12l0.1-1.05
		c-0.22,0.43-0.16,0.51-0.1,1.05L21.21,16.33z"/>
	<path class="st0" d="M46.51,39.85h0.63v-0.66C46.93,39.43,46.72,39.65,46.51,39.85z"/>
	<path class="st0" d="M36.59,23.63c-0.28-0.28-0.09-0.19-0.56-0.31c-0.57-0.14-0.15,0.14-0.59-0.22c-0.01,0.47-0.05,0.24,0.45,0.35
		C36.24,23.52,36.3,23.5,36.59,23.63z"/>
	<path class="st0" d="M7.85,39.85h0.69c-0.37-0.19-0.27-0.04-0.57-0.41l-0.12-0.2V39.85z"/>
</g>
</svg>
