<?xml version="1.0" encoding="utf-8"?>
<!-- Generator: Adobe Illustrator 25.2.0, SVG Export Plug-In . SVG Version: 6.00 Build 0)  -->
<svg version="1.1" id="Layer_1" xmlns="http://www.w3.org/2000/svg" xmlns:xlink="http://www.w3.org/1999/xlink" x="0px" y="0px"
	 viewBox="0 0 55 55" style="enable-background:new 0 0 55 55;" xml:space="preserve">
<style type="text/css">
	.st0{fill-rule:evenodd;clip-rule:evenodd;fill:#FFFFFF;}
</style>
<g>
	<path class="st0" d="M17.68,37.86c0.29,0.22,0.02-0.03,0.36,0.29c0.21,0.2,0.2,0.25,0.27,0.38l-0.46,0.13
		c-0.86,0.54-2.51,1.29-2.4,3.11c1.13,1,4.58,0.94,6.08,0.69c0.56-0.09,1.73-0.54,1.82-0.55c0.01,0,4.13,1.31,7.26,0.36
		c0.56-0.17,0.38-0.06,0.75-0.44l-0.1-0.85c-0.05-1.19-1.25-1.85-2.58-2.52c2.74-3-0.43-5.42-2.08-4.27c0,0.43,0.09,0.31-0.36,0.22
		l-0.26,0.13l-0.16,0.24c0.06,0.36,0.13,0.27-0.23,0.27c-0.72,1.77-0.02,2.33,0.74,3.42c-0.66,0.53-2.08,0.65-2.83,2.71
		c-0.79-1.28-0.99-2.1-2.7-2.47l0.44-1.16c0.98-1.48,0.2-3.66-1.81-3.63C17.01,33.94,17.04,36.07,17.68,37.86z"/>
	<path class="st0" d="M17.29,29.37l2.92,0.04l0.47-0.57c-0.06-0.96,0.02-0.26-0.26-0.54c-4.17,0.04-4.3,0.12-4.3-4.07
		c0-2.55-0.22-6.25,0.01-8.66c0.24-2.53,2.86-1.85,6.56-1.85l12.8,0c1.81-0.01,2.76-0.09,3.27,1.1c0.44,1.02,0.17,6.75,0.17,8.38
		c0.01,6.43,1.05,4.86-12.12,5.13c0.15,1.61-0.35,1.2,3.55,1.19c7.39-0.02,9.79,1.15,9.76-4.46c-0.07-12.43,1.42-12.56-6.5-12.57
		c-3.16,0-6.33-0.01-9.49,0c-2.37,0.01-6.94-0.57-8.47,1c-1.24,1.27-0.77,6.51-0.77,8.72C14.9,24.31,14.15,29.3,17.29,29.37z"/>
	<path class="st0" d="M23.3,27.77l0.11-0.65c1.24,0,0.35-0.04,0.69,0.34c0.05,1.4,0.2,2.54,0.32,3.9c0.05,0.59,0.03,1.43,0.14,1.97
		c0.16,0.77,0.41,1,1.03,0.96c0.04-0.04,0.1-0.18,0.13-0.13c0.03,0.04,0.1-0.09,0.14-0.11l0.34-0.15c0.21-1.18-0.22-4.47-0.33-5.96
		c-0.16-2.15-0.15-4.28-0.12-6.45c1.42,0.33,3.52,1.55,4.89,1.2c0.33-1.43-0.24-1.26-2.68-2.05c-1.14-0.36-2.93-1.25-4.03-0.81
		l0.01,0.68c0.03,1.68,0.78,3.06-0.22,4.1c-0.96-1.11-0.24-2.37-0.21-3.89l0.04-0.98C22.71,19.6,21.01,20,20.4,20.5
		c-0.57,0.78-0.69,2.35-0.94,3.43c-0.33,1.42-1.04,2.74,0.54,2.83c1.03-0.93,0.8-4.21,1.7-5.26c0.06,2.26,0.02,4.45-0.13,6.66
		c-0.11,1.57-0.66,4.84-0.21,6.05c1.78,0.49,1.48-0.27,1.66-2.49C23.11,30.51,23.29,29.08,23.3,27.77z"/>
	<path class="st0" d="M31.85,40.98l-0.11,0.85c1.15,1.12,6.12,0.95,7.91,0.03c-0.03-0.92-0.14-1.45-0.97-2.23
		c-0.65-0.62-1.16-0.71-1.9-1.17c1.77-1.63,1.25-4.65-1.26-4.54c-1.53,0.06-3.04,1.75-1.45,4.09c0.41,0.6,0.19-0.04,0.31,0.56
		C33.29,39,31.94,39.8,31.85,40.98z"/>
	<path class="st0" d="M23.07,15.68c-2.44,1.1-0.68,4.71,1.46,3.59C26.6,18.18,25.28,14.69,23.07,15.68z"/>
	<path class="st0" d="M33.62,26.55l1-0.03l-0.02-6.49l-1.13-0.11C33.34,21.27,33.2,25.76,33.62,26.55z"/>
	<polygon class="st0" points="32.82,26.51 32.75,21.79 31.73,21.68 31.72,26.48 	"/>
	<polygon class="st0" points="30.98,26.59 30.95,23.33 29.84,23.34 29.91,26.63 	"/>
	<path class="st0" d="M32.82,26.51c0.31-0.33,0.12-0.3,0.13-1.02c0.01-0.42,0.03-0.84,0.02-1.27c-0.02-0.74,0.22-1.94-0.22-2.44
		L32.82,26.51l-1.1-0.03l0-4.8c-0.12,0.23-0.07-0.29-0.22,0.52c-0.16,0.88-0.1,3.78,0.17,4.38C33.01,26.87,32.7,26.59,32.82,26.51z"
		/>
	<path class="st0" d="M30.98,26.59c0.42-0.81,0.05-1.82,0.26-3.34l-1.22,0.02c-0.04,0.01-0.11,0.05-0.17,0.08l1.11-0.01L30.98,26.59
		z"/>
	<path class="st0" d="M17.29,29.37c0.81,0.39,2.4,0.31,3.25,0.14l0.14-0.67l-0.47,0.57L17.29,29.37z"/>
	<polygon class="st0" points="31.37,41.83 31.74,41.83 31.85,40.98 31.27,40.98 	"/>
	<path class="st0" d="M26.2,33.89l-0.34,0.15c-0.04,0.02-0.11,0.16-0.14,0.11c-0.03-0.04-0.08,0.09-0.13,0.13
		c0.43,0.02,0.34-0.11,0.39,0.26c-0.29,0-0.22-0.06-0.16,0.24l-0.23,0.27c0.37,0,0.29,0.09,0.23-0.27l0.16-0.24l0.26-0.13
		c0.45,0.09,0.36,0.21,0.36-0.22c-0.45-0.03-0.38-0.16-0.36,0.22l-0.35-0.3C26.65,34.3,25.94,34.17,26.2,33.89z"/>
	<path class="st0" d="M23.3,27.77l0.21-0.43l0.59,0.11c-0.34-0.38,0.55-0.34-0.69-0.34L23.3,27.77z"/>
	<path class="st0" d="M17.85,38.66l0.46-0.13c-0.07-0.13-0.06-0.18-0.27-0.38c-0.34-0.32-0.07-0.07-0.36-0.29
		c0.36,0.8,0.07,0.2,0.41,0.46L17.85,38.66z"/>
	<path class="st0" d="M20.8,38.71c-0.12-0.5,0.08-0.36,0.44-1.16L20.8,38.71z"/>
</g>
</svg>
