<?xml version="1.0" encoding="utf-8"?>
<!-- Generator: Adobe Illustrator 25.2.0, SVG Export Plug-In . SVG Version: 6.00 Build 0)  -->
<svg version="1.1" id="Layer_1" xmlns="http://www.w3.org/2000/svg" xmlns:xlink="http://www.w3.org/1999/xlink" x="0px" y="0px"
	 viewBox="0 0 13.2 13.2" style="enable-background:new 0 0 13.2 13.2;" xml:space="preserve">
<style type="text/css">
	.st0{fill-rule:evenodd;clip-rule:evenodd;fill:#010005;}
	.st1{fill-rule:evenodd;clip-rule:evenodd;fill:#FFFFFF;}
</style>
<path class="st0" d="M8.63,6.87c0.02,0.03,0.04,0.06,0.04,0.09l0.06-0.1L8.63,6.87L8.63,6.87z M7.6,7.88
	c-0.05-0.02-0.09-0.05-0.11-0.1C7.48,7.76,7.47,7.74,7.47,7.71C7.4,7.79,7.29,7.9,7.16,7.98C7.12,8.01,7.08,8.03,7.04,8.05
	C7.24,8.02,7.42,7.96,7.6,7.88L7.6,7.88z M7.86,6.91C7.89,6.86,7.94,6.82,8,6.8L7.97,6.76c-0.02,0.05-0.05,0.08-0.14,0.1l-0.01,0
	C7.84,6.88,7.85,6.9,7.86,6.91L7.86,6.91z M5.19,6.82c0.06,0.01,0.11,0.05,0.13,0.1l0.01,0.03c0.01-0.02,0.03-0.05,0.05-0.07
	c-0.07,0-0.13-0.05-0.16-0.1L5.19,6.82L5.19,6.82z M5.72,7.71c-0.01,0.06-0.04,0.12-0.1,0.16L5.6,7.88l0.15,0.06
	c0.13,0.05,0.26,0.08,0.4,0.11L6.06,8C5.92,7.9,5.78,7.77,5.72,7.71L5.72,7.71z M4.53,6.98c0.01-0.04,0.02-0.07,0.05-0.1l-0.07,0
	L4.46,6.87L4.53,6.98L4.53,6.98z M6.96,7.2l0,0.44C7.06,7.58,7.14,7.5,7.18,7.44C7.24,7.37,7.3,7.29,7.36,7.21L7.37,7.2L6.96,7.2
	L6.96,7.2z M6.6,6.9c0.01-0.02,0.03-0.04,0.05-0.05C6.63,6.83,6.61,6.81,6.6,6.78C6.58,6.8,6.56,6.82,6.54,6.84
	C6.57,6.85,6.59,6.87,6.6,6.9L6.6,6.9z M6.64,8.09C6.62,8.07,6.6,8.04,6.58,8.01C6.57,8.04,6.54,8.07,6.52,8.09L6.64,8.09L6.64,8.09
	z M6.23,7.2l-0.39,0l0.01,0.02c0.04,0.07,0.09,0.14,0.17,0.22c0.03,0.04,0.11,0.12,0.2,0.19L6.23,7.2L6.23,7.2z M8.37,6.47l0.2,0
	l0.02-0.05c0.03-0.08,0.06-0.18,0.08-0.23C8.69,6.12,8.7,6.06,8.72,5.99l0-0.02L8.46,5.96L8.37,6.47L8.37,6.47z M8.13,5.68
	l0.02-0.03l0.04-0.04C8.16,5.6,8.13,5.57,8.12,5.55C8.1,5.57,8.08,5.59,8.06,5.6C8.09,5.62,8.11,5.65,8.13,5.68L8.13,5.68z
	 M9.04,5.61l0.04,0.03l0-0.06L9.04,5.61L9.04,5.61z M6.24,6.47l0-0.52l-0.78,0c0,0.07,0.02,0.17,0.03,0.27l0,0.01
	c0.02,0.09,0.03,0.18,0.05,0.24L6.24,6.47L6.24,6.47z M5.08,5.67C5.09,5.64,5.12,5.62,5.14,5.6C5.12,5.59,5.1,5.57,5.09,5.55
	C5.07,5.58,5.05,5.6,5.03,5.61C5.05,5.63,5.06,5.65,5.08,5.67L5.08,5.67z M6.53,5.61l0.06,0.06C6.61,5.64,6.63,5.62,6.66,5.6
	C6.63,5.58,6.61,5.56,6.6,5.54C6.58,5.57,6.56,5.59,6.53,5.61L6.53,5.61z M4.74,5.97l-0.27,0L4.5,6.09
	c0.04,0.14,0.09,0.28,0.14,0.39l0.16,0L4.76,6.27C4.75,6.2,4.75,6.13,4.74,6.06L4.74,5.97L4.74,5.97z M4.12,5.64L4.16,5.6L4.12,5.57
	V5.64L4.12,5.64z M7.33,6.48l0.33,0C7.72,6.3,7.74,6.13,7.75,5.96l-0.79,0l0,0.52L7.33,6.48L7.33,6.48z M7.66,4.77l-0.7,0l0,0.47
	l0.77,0l-0.03-0.2C7.7,4.95,7.68,4.86,7.66,4.77L7.66,4.77z M7.84,4.38c0.07,0.01,0.12,0.05,0.15,0.1C8,4.46,8.01,4.45,8.03,4.43
	C7.97,4.42,7.93,4.4,7.9,4.35L7.88,4.32C7.87,4.34,7.86,4.36,7.84,4.38L7.84,4.38z M6.6,4.46c0.02-0.02,0.04-0.04,0.06-0.06
	C6.64,4.39,6.62,4.37,6.6,4.35C6.59,4.37,6.57,4.39,6.54,4.41C6.57,4.42,6.59,4.44,6.6,4.46L6.6,4.46z M5.38,4.4l0.01,0
	C5.36,4.38,5.34,4.35,5.32,4.31L5.3,4.36C5.27,4.4,5.22,4.43,5.18,4.43C5.19,4.45,5.2,4.47,5.21,4.48C5.25,4.43,5.31,4.4,5.38,4.4
	L5.38,4.4z M6.24,4.77l-0.7,0.02L5.53,4.83C5.51,4.9,5.5,4.96,5.49,5.02L5.46,5.24l0.78,0L6.24,4.77L6.24,4.77z M8.65,4.37H8.7
	c0.02,0,0.04,0,0.06,0.01L8.7,4.28C8.69,4.31,8.68,4.35,8.65,4.37L8.65,4.37z M8.59,4.77H8.4c0.03,0.15,0.06,0.31,0.07,0.47h0.25
	C8.7,5.15,8.68,5.05,8.65,4.96C8.63,4.89,8.61,4.82,8.59,4.77L8.59,4.77z M4.47,5.24l0.26,0C4.74,5.09,4.77,4.91,4.8,4.77l-0.18,0
	C4.56,4.92,4.5,5.09,4.47,5.24L4.47,5.24z M4.44,4.38c0.02,0,0.04-0.01,0.06-0.01l0.05,0C4.52,4.35,4.51,4.32,4.5,4.28L4.44,4.38
	L4.44,4.38z M7.05,3.16l0.12,0.07C7.3,3.31,7.41,3.42,7.48,3.5c0.01-0.07,0.05-0.14,0.13-0.17l0,0L7.47,3.28
	C7.34,3.23,7.2,3.19,7.05,3.16L7.05,3.16z M7.19,3.77c-0.05-0.06-0.13-0.14-0.22-0.2l0,0.47l0.42,0L7.37,4.03
	C7.32,3.93,7.25,3.84,7.19,3.77L7.19,3.77z M6.6,3.17c0.01-0.02,0.03-0.03,0.04-0.05H6.56C6.57,3.14,6.59,3.15,6.6,3.17L6.6,3.17z
	 M5.91,3.89C5.88,3.94,5.85,3.99,5.82,4.04l0.41,0l0-0.47L6.2,3.59C6.08,3.68,5.98,3.8,5.91,3.89L5.91,3.89z M5.73,3.49
	C5.8,3.42,5.88,3.34,5.97,3.27c0.06-0.04,0.12-0.08,0.18-0.11C6.06,3.18,5.97,3.2,5.88,3.22c-0.1,0.03-0.19,0.06-0.28,0.1
	c0.06,0.02,0.1,0.06,0.12,0.12L5.73,3.49L5.73,3.49z M5.77,2.85c0.18-0.05,0.37-0.09,0.56-0.11l0.02,0
	c0.21-0.02,0.43-0.01,0.63,0.02c0.22,0.03,0.44,0.09,0.62,0.15c0.18,0.07,0.31,0.13,0.43,0.2c0.12,0.07,0.22,0.15,0.35,0.24
	l0.01,0.01c0.27,0.2,0.53,0.51,0.73,0.88c0.17,0.33,0.3,0.71,0.33,1.13c0.03,0.4-0.01,0.78-0.13,1.14c-0.12,0.37-0.32,0.71-0.58,1
	C8.5,7.79,8.22,8.02,7.89,8.18C7.57,8.34,7.23,8.44,6.85,8.47C6.63,8.49,6.42,8.49,6.21,8.46C6,8.43,5.8,8.38,5.61,8.31L5.59,8.3
	C5.39,8.23,5.24,8.15,5.1,8.07c-0.14-0.09-0.26-0.18-0.4-0.3c-0.24-0.2-0.49-0.5-0.67-0.86C3.88,6.6,3.76,6.24,3.73,5.84
	C3.71,5.63,3.72,5.43,3.75,5.23l0-0.01C3.78,5,3.83,4.8,3.9,4.6c0.07-0.19,0.18-0.4,0.3-0.59L4.21,4C4.34,3.81,4.48,3.63,4.63,3.5
	c0.05-0.04,0.14-0.12,0.19-0.16C4.88,3.29,4.95,3.24,5.02,3.2c0.07-0.05,0.14-0.09,0.23-0.14C5.41,2.97,5.58,2.9,5.77,2.85z"/>
<path class="st1" d="M8.04,7l0.44,0c-0.1,0.22-0.6,0.6-0.82,0.7l0.2-0.32C7.92,7.29,8.02,7.1,8.04,7L8.04,7z M4.73,7.01l0.43,0
	l0.37,0.68C5.5,7.68,5.5,7.68,5.47,7.66L5.08,7.4C4.99,7.31,4.78,7.13,4.73,7.01L4.73,7.01z M6.76,7.93C7,7.9,7.24,7.69,7.33,7.57
	C7.45,7.42,7.61,7.23,7.68,7L6.77,7L6.76,7.93L6.76,7.93z M5.52,7.02c0.13,0.25,0.18,0.37,0.34,0.55c0.07,0.08,0.35,0.35,0.54,0.35
	L6.43,7L5.56,7C5.52,7.01,5.54,7.01,5.52,7.02L5.52,7.02z M8.7,6.65C8.68,6.67,8.73,6.67,8.66,6.67l-0.51,0
	c0-0.17,0.1-0.6,0.13-0.84c0-0.05,0.02-0.07,0.06-0.07c0.02,0,0.07,0,0.09,0l0.51,0.02C8.92,5.95,8.9,6.09,8.86,6.25
	C8.83,6.35,8.75,6.58,8.7,6.65L8.7,6.65z M6.43,5.78l0,0.89L5.4,6.68c-0.06-0.15-0.15-0.63-0.14-0.8C5.24,5.84,5.24,5.82,5.25,5.77
	c0.11-0.02,0.82,0,1.04-0.01C6.36,5.76,6.4,5.75,6.43,5.78L6.43,5.78z M4.26,5.77l0.65,0c0.03,0.11,0.03,0.34,0.05,0.47
	c0.02,0.16,0.06,0.29,0.09,0.44l-0.54,0C4.42,6.48,4.23,6.02,4.26,5.77L4.26,5.77z M7.81,6.65C7.79,6.68,7.82,6.67,7.7,6.67
	c-0.28,0-0.7,0.02-0.94,0l0-0.91l1.19,0c0,0.02,0.01,0.02,0,0.04C7.94,6.08,7.93,6.36,7.81,6.65L7.81,6.65z M6.77,4.57l1.05,0
	c0.08,0.28,0.13,0.57,0.13,0.86l-1.18,0L6.77,4.57L6.77,4.57z M5.37,4.6l1.06-0.03l0.01,0.82c0,0.04,0.01-0.02,0,0.03L6.43,5.44
	l-1.18,0c0-0.15,0.02-0.3,0.04-0.44C5.31,4.85,5.36,4.72,5.37,4.6L5.37,4.6z M8.17,4.57H8.7c0.12,0.15,0.22,0.63,0.24,0.87l-0.66,0
	c0-0.15-0.02-0.31-0.04-0.45C8.23,4.89,8.16,4.64,8.17,4.57L8.17,4.57z M4.92,5.44L4.26,5.44C4.24,5.17,4.4,4.8,4.49,4.58l0.55,0
	C5.02,4.72,4.9,5.19,4.92,5.44L4.92,5.44z M6.77,3.28C7,3.32,7.24,3.51,7.34,3.65C7.47,3.8,7.63,4.03,7.7,4.24l-0.93,0L6.77,3.28
	L6.77,3.28z M5.5,4.24c0.07-0.14,0.15-0.32,0.25-0.46c0.13-0.19,0.4-0.46,0.68-0.5l0,0.97L5.5,4.24L5.5,4.24z M8.06,4.24l0.45,0
	C8.42,4.1,8.25,3.94,8.14,3.83C8.07,3.77,7.8,3.56,7.68,3.52c0.02,0.05,0.07,0.12,0.11,0.17C7.91,3.87,8.01,4.17,8.06,4.24
	L8.06,4.24z M4.69,4.25l0.44-0.01C5.16,4.2,5.25,3.92,5.51,3.56c0.02-0.03,0,0.01,0.02-0.04C5.4,3.56,5.14,3.75,5.07,3.83
	C4.99,3.9,4.72,4.15,4.69,4.25L4.69,4.25z M6.37,2.93c-0.38,0.03-0.73,0.14-1.03,0.3C5.18,3.32,5.06,3.4,4.94,3.5
	C4.88,3.55,4.81,3.6,4.76,3.65C4.49,3.89,4.21,4.32,4.09,4.67c-0.13,0.35-0.2,0.75-0.16,1.16C4,6.64,4.41,7.26,4.83,7.61
	C5.1,7.84,5.29,7.98,5.66,8.12c0.36,0.13,0.75,0.19,1.17,0.16c0.71-0.06,1.32-0.39,1.77-0.9c0.48-0.54,0.73-1.24,0.67-1.99
	C9.2,4.56,8.76,3.87,8.29,3.52C8.03,3.33,7.87,3.21,7.54,3.09C7.2,2.97,6.79,2.9,6.37,2.93z"/>
<path class="st0" d="M9.19,4.53C9.15,4.44,9.11,4.35,9.11,4.29V4.28c0-0.11,0.09-0.2,0.2-0.2l0.15,0c0.47-0.01,0.76-0.01,0.76,0.62
	v1.14c0,0.51,0,1.01,0,1.52l0,1.11c0.01,0.45,0.01,0.68-0.15,0.84C9.91,9.47,9.68,9.47,9.21,9.47c-1.74-0.01-3.48-0.01-5.22,0
	c-0.47,0.01-0.7,0.01-0.86-0.15C2.97,9.15,2.98,8.93,2.98,8.47c0.01-1.07,0.01-2.13,0-3.2C2.98,4.79,2.97,4.53,3.05,4.35
	c0.12-0.28,0.33-0.27,0.77-0.27l0.09,0c0.11,0.01,0.19,0.1,0.18,0.21c0,0.06-0.04,0.15-0.08,0.24C3.98,4.6,3.95,4.67,3.94,4.71
	C3.92,4.79,3.85,4.85,3.77,4.86l0,3.57l5.67-0.01l0-2.26c0-0.43,0.01-0.98,0-1.3c-0.09,0-0.16-0.07-0.18-0.15
	C9.25,4.67,9.22,4.6,9.19,4.53L9.19,4.53z M9.82,8.63C9.82,8.66,9.81,8.68,9.79,8.71c-0.04,0.07-0.1,0.1-0.17,0.1L3.58,8.82
	C3.5,8.82,3.43,8.77,3.4,8.7L3.38,8.64c0,0.24,0,0.37,0.04,0.4c0.04,0.04,0.22,0.04,0.58,0.04c1.74-0.01,3.48-0.01,5.22,0
	c0.36,0,0.53,0.01,0.58-0.04C9.82,9,9.82,8.88,9.82,8.63L9.82,8.63z M3.39,4.58c0.03-0.05,0.07-0.09,0.13-0.1
	C3.46,4.48,3.42,4.5,3.41,4.52L3.39,4.58z"/>
<path class="st1" d="M9.31,4.28c0,0.06,0.12,0.28,0.14,0.38l0.18,0.01c0.02,0.34,0,1.54,0,1.97v1.85c0,0.06,0.01,0.08-0.02,0.13
	L3.58,8.63c0-0.01-0.01-0.02-0.01-0.02c0,0,0-0.01-0.01-0.01c-0.01-0.05,0,0.02-0.01-0.03l0-3.9l0.18-0.01
	c0.03-0.11,0.14-0.32,0.14-0.38c-0.84,0-0.71-0.05-0.71,1.56c0,0.76,0,1.52,0,2.28c0,1.28-0.15,1.15,1.13,1.15h4.57
	c1.28,0,1.13,0.13,1.13-1.15c0-0.76-0.01-1.52,0-2.28c0-0.38,0-0.76,0-1.13C10.02,4.21,9.74,4.28,9.31,4.28z"/>
<path class="st0" d="M10.55,9.87c0.01-0.04,0.01-0.08,0-0.11l0-0.01c-0.01-0.01-0.02-0.02-0.04-0.03c-0.04-0.01-1.14-0.01-1.79-0.01
	l-0.75,0c-0.03,0-0.03,0-0.04,0.01C7.88,9.79,7.82,9.86,7.63,9.91l-0.01,0C7.53,9.93,7.44,9.93,7.36,9.93l-0.37,0
	c-0.5,0-1.29,0.01-1.44-0.03c-0.2-0.06-0.26-0.13-0.3-0.19c0,0,0,0.01-0.04,0.01c-0.76,0-1.58-0.03-2.33,0c-0.12,0-0.21,0-0.23,0.03
	C2.64,9.78,2.64,9.81,2.65,9.84C2.66,9.9,2.69,9.96,2.72,9.99c0.02,0.02,0.05,0.04,0.09,0.06c0.06,0.02,0.12,0.03,0.19,0.03l4.61,0
	c0.78,0,1.57-0.01,2.33,0l0.09,0C10.24,10.08,10.48,10.09,10.55,9.87L10.55,9.87z M10.91,9.61c0.05,0.11,0.06,0.24,0.02,0.38
	c-0.15,0.51-0.56,0.5-0.92,0.49l-0.08,0c-0.76-0.01-1.54-0.01-2.32,0l-1.15,0l-3.46,0c-0.11,0-0.22-0.02-0.33-0.05
	c-0.1-0.04-0.19-0.09-0.26-0.18c-0.06-0.07-0.13-0.19-0.15-0.32C2.24,9.81,2.24,9.69,2.3,9.58c0.13-0.25,0.32-0.25,0.58-0.25
	c0.75-0.03,1.57,0,2.33,0c0.23,0,0.28,0.06,0.35,0.14l0.01,0.01c0.01,0.01,0.02,0.03,0.1,0.05c0.09,0.03,0.85,0.02,1.33,0.02l0.37,0
	c0.06,0,0.12,0,0.17-0.01l0.01,0c0.06-0.02,0.08-0.04,0.1-0.05C7.7,9.39,7.76,9.32,7.97,9.32l0.74,0c0.68,0,1.81-0.01,1.91,0.03
	c0.12,0.04,0.22,0.12,0.27,0.24L10.91,9.61z"/>
<path class="st1" d="M10.74,9.93c0.06-0.19-0.03-0.34-0.17-0.39c-0.1-0.03-1.98-0.01-2.3-0.02c-0.1,0-0.2,0-0.3,0
	c-0.24,0-0.13,0.13-0.39,0.19C7.5,9.73,7.41,9.73,7.32,9.73c-0.33,0-1.56,0.02-1.71-0.02C5.32,9.63,5.48,9.52,5.21,9.52l-1.73,0
	c-0.19,0-0.39,0-0.58,0c-0.2,0-0.35-0.01-0.42,0.14c-0.08,0.16,0.01,0.35,0.09,0.45c0.1,0.12,0.27,0.16,0.43,0.16l3.46,0
	c1.14,0,2.34-0.01,3.48,0C10.24,10.28,10.62,10.32,10.74,9.93z"/>
</svg>
